<svg width="253" height="38" viewBox="0 0 253 38" fill="none" xmlns="http://www.w3.org/2000/svg">
<path d="M20.84 1.88C21.4533 1.88 22 2.12 22.48 2.6C22.9867 3.05333 23.24 3.64 23.24 4.36C23.24 4.6 23.2 4.85333 23.12 5.12C23.0667 5.36 22.96 5.6 22.8 5.84L13.72 18.84L14.44 16.08V27.56C14.44 28.2533 14.2 28.84 13.72 29.32C13.2667 29.7733 12.7333 30 12.12 30C11.4533 30 10.88 29.7733 10.4 29.32C9.94667 28.84 9.72 28.2533 9.72 27.56V16.4L10.04 17.68L1.4 6.2C1.13333 5.85333 0.946667 5.52 0.84 5.2C0.733333 4.88 0.68 4.58667 0.68 4.32C0.68 3.6 0.96 3.01333 1.52 2.56C2.08 2.10667 2.65333 1.88 3.24 1.88C3.98667 1.88 4.64 2.25333 5.2 3L12.88 13.6L11.76 13.44L18.84 3.08C19.4 2.28 20.0667 1.88 20.84 1.88ZM41.5269 8.6C42.2202 8.6 42.7935 8.84 43.2469 9.32C43.7002 9.77333 43.9269 10.3467 43.9269 11.04V21.2C43.9269 24.0267 43.1402 26.2667 41.5669 27.92C39.9935 29.5733 37.7269 30.4 34.7669 30.4C31.8069 30.4 29.5402 29.5733 27.9669 27.92C26.4202 26.2667 25.6469 24.0267 25.6469 21.2V11.04C25.6469 10.3467 25.8735 9.77333 26.3269 9.32C26.7802 8.84 27.3535 8.6 28.0469 8.6C28.7402 8.6 29.3135 8.84 29.7669 9.32C30.2202 9.77333 30.4469 10.3467 30.4469 11.04V21.2C30.4469 22.8267 30.8069 24.04 31.5269 24.84C32.2469 25.6133 33.3269 26 34.7669 26C36.2335 26 37.3269 25.6133 38.0469 24.84C38.7669 24.04 39.1269 22.8267 39.1269 21.2V11.04C39.1269 10.3467 39.3535 9.77333 39.8069 9.32C40.2602 8.84 40.8335 8.6 41.5269 8.6ZM47.8834 26.68C47.6168 26.3067 47.4968 25.8267 47.5234 25.24C47.5501 24.6533 47.8968 24.1467 48.5634 23.72C48.9901 23.4533 49.4434 23.3467 49.9234 23.4C50.4034 23.4267 50.8701 23.6667 51.3234 24.12C52.0968 24.8933 52.9101 25.4933 53.7634 25.92C54.6168 26.3467 55.6834 26.56 56.9634 26.56C57.3634 26.5333 57.8034 26.48 58.2834 26.4C58.7634 26.2933 59.1768 26.08 59.5234 25.76C59.8968 25.4133 60.0834 24.8933 60.0834 24.2C60.0834 23.6133 59.8834 23.1467 59.4834 22.8C59.0834 22.4533 58.5501 22.16 57.8834 21.92C57.2434 21.68 56.5234 21.4533 55.7234 21.24C54.8968 21 54.0434 20.7333 53.1634 20.44C52.3101 20.1467 51.5234 19.7733 50.8034 19.32C50.0834 18.84 49.4968 18.2133 49.0434 17.44C48.5901 16.6667 48.3634 15.6933 48.3634 14.52C48.3634 13.1867 48.7368 12.0533 49.4834 11.12C50.2301 10.1867 51.1901 9.46667 52.3634 8.96C53.5634 8.45333 54.8168 8.2 56.1234 8.2C56.9501 8.2 57.8168 8.30667 58.7234 8.52C59.6301 8.70667 60.4968 9.02667 61.3234 9.48C62.1501 9.90667 62.8434 10.48 63.4034 11.2C63.6968 11.6 63.8701 12.08 63.9234 12.64C63.9768 13.2 63.7234 13.7067 63.1634 14.16C62.7634 14.48 62.2968 14.6267 61.7634 14.6C61.2301 14.5467 60.7901 14.36 60.4434 14.04C59.9901 13.4533 59.3768 12.9867 58.6034 12.64C57.8568 12.2933 56.9901 12.12 56.0034 12.12C55.6034 12.12 55.1634 12.1733 54.6834 12.28C54.2301 12.36 53.8301 12.56 53.4834 12.88C53.1368 13.1733 52.9634 13.6533 52.9634 14.32C52.9634 14.9333 53.1634 15.4267 53.5634 15.8C53.9634 16.1467 54.4968 16.44 55.1634 16.68C55.8568 16.8933 56.5901 17.1067 57.3634 17.32C58.1634 17.5333 58.9768 17.7867 59.8034 18.08C60.6301 18.3733 61.3901 18.76 62.0834 19.24C62.7768 19.72 63.3368 20.3467 63.7634 21.12C64.1901 21.8667 64.4034 22.8267 64.4034 24C64.4034 25.36 64.0034 26.52 63.2034 27.48C62.4034 28.44 61.4034 29.1733 60.2034 29.68C59.0034 30.16 57.7768 30.4 56.5234 30.4C54.9501 30.4 53.3768 30.1333 51.8034 29.6C50.2301 29.04 48.9234 28.0667 47.8834 26.68ZM67.1803 26.68C66.9136 26.3067 66.7936 25.8267 66.8203 25.24C66.847 24.6533 67.1936 24.1467 67.8603 23.72C68.287 23.4533 68.7403 23.3467 69.2203 23.4C69.7003 23.4267 70.167 23.6667 70.6203 24.12C71.3936 24.8933 72.207 25.4933 73.0603 25.92C73.9136 26.3467 74.9803 26.56 76.2603 26.56C76.6603 26.5333 77.1003 26.48 77.5803 26.4C78.0603 26.2933 78.4736 26.08 78.8203 25.76C79.1936 25.4133 79.3803 24.8933 79.3803 24.2C79.3803 23.6133 79.1803 23.1467 78.7803 22.8C78.3803 22.4533 77.847 22.16 77.1803 21.92C76.5403 21.68 75.8203 21.4533 75.0203 21.24C74.1936 21 73.3403 20.7333 72.4603 20.44C71.607 20.1467 70.8203 19.7733 70.1003 19.32C69.3803 18.84 68.7936 18.2133 68.3403 17.44C67.887 16.6667 67.6603 15.6933 67.6603 14.52C67.6603 13.1867 68.0336 12.0533 68.7803 11.12C69.527 10.1867 70.487 9.46667 71.6603 8.96C72.8603 8.45333 74.1136 8.2 75.4203 8.2C76.247 8.2 77.1136 8.30667 78.0203 8.52C78.927 8.70667 79.7936 9.02667 80.6203 9.48C81.447 9.90667 82.1403 10.48 82.7003 11.2C82.9936 11.6 83.167 12.08 83.2203 12.64C83.2736 13.2 83.0203 13.7067 82.4603 14.16C82.0603 14.48 81.5936 14.6267 81.0603 14.6C80.527 14.5467 80.087 14.36 79.7403 14.04C79.287 13.4533 78.6736 12.9867 77.9003 12.64C77.1536 12.2933 76.287 12.12 75.3003 12.12C74.9003 12.12 74.4603 12.1733 73.9803 12.28C73.527 12.36 73.127 12.56 72.7803 12.88C72.4336 13.1733 72.2603 13.6533 72.2603 14.32C72.2603 14.9333 72.4603 15.4267 72.8603 15.8C73.2603 16.1467 73.7936 16.44 74.4603 16.68C75.1536 16.8933 75.887 17.1067 76.6603 17.32C77.4603 17.5333 78.2736 17.7867 79.1003 18.08C79.927 18.3733 80.687 18.76 81.3803 19.24C82.0736 19.72 82.6336 20.3467 83.0603 21.12C83.487 21.8667 83.7003 22.8267 83.7003 24C83.7003 25.36 83.3003 26.52 82.5003 27.48C81.7003 28.44 80.7003 29.1733 79.5003 29.68C78.3003 30.16 77.0736 30.4 75.8203 30.4C74.247 30.4 72.6736 30.1333 71.1003 29.6C69.527 29.04 68.2203 28.0667 67.1803 26.68ZM108.477 19.32C108.477 21.5067 107.984 23.44 106.997 25.12C106.037 26.7733 104.731 28.0667 103.077 29C101.451 29.9333 99.6239 30.4 97.5972 30.4C95.5705 30.4 93.7305 29.9333 92.0772 29C90.4505 28.0667 89.1439 26.7733 88.1572 25.12C87.1972 23.44 86.7172 21.5067 86.7172 19.32C86.7172 17.1333 87.1972 15.2133 88.1572 13.56C89.1439 11.88 90.4505 10.5733 92.0772 9.64C93.7305 8.68 95.5705 8.2 97.5972 8.2C99.6239 8.2 101.451 8.68 103.077 9.64C104.731 10.5733 106.037 11.88 106.997 13.56C107.984 15.2133 108.477 17.1333 108.477 19.32ZM103.677 19.32C103.677 17.96 103.397 16.7867 102.837 15.8C102.304 14.7867 101.571 14 100.637 13.44C99.7305 12.88 98.7172 12.6 97.5972 12.6C96.4772 12.6 95.4505 12.88 94.5172 13.44C93.6105 14 92.8772 14.7867 92.3172 15.8C91.7839 16.7867 91.5172 17.96 91.5172 19.32C91.5172 20.6533 91.7839 21.8267 92.3172 22.84C92.8772 23.8267 93.6105 24.6 94.5172 25.16C95.4505 25.72 96.4772 26 97.5972 26C98.7172 26 99.7305 25.72 100.637 25.16C101.571 24.6 102.304 23.8267 102.837 22.84C103.397 21.8267 103.677 20.6533 103.677 19.32ZM128.558 8.6C129.251 8.6 129.825 8.84 130.278 9.32C130.731 9.77333 130.958 10.3467 130.958 11.04V21.2C130.958 24.0267 130.171 26.2667 128.598 27.92C127.025 29.5733 124.758 30.4 121.798 30.4C118.838 30.4 116.571 29.5733 114.998 27.92C113.451 26.2667 112.678 24.0267 112.678 21.2V11.04C112.678 10.3467 112.905 9.77333 113.358 9.32C113.811 8.84 114.385 8.6 115.078 8.6C115.771 8.6 116.345 8.84 116.798 9.32C117.251 9.77333 117.478 10.3467 117.478 11.04V21.2C117.478 22.8267 117.838 24.04 118.558 24.84C119.278 25.6133 120.358 26 121.798 26C123.265 26 124.358 25.6133 125.078 24.84C125.798 24.04 126.158 22.8267 126.158 21.2V11.04C126.158 10.3467 126.385 9.77333 126.838 9.32C127.291 8.84 127.865 8.6 128.558 8.6ZM147.155 0.4C147.741 0.4 148.315 0.479999 148.875 0.639999C149.435 0.799998 149.901 1.06666 150.275 1.44C150.648 1.78667 150.835 2.25333 150.835 2.84C150.835 3.50667 150.635 4.04 150.235 4.44C149.861 4.81333 149.421 5 148.915 5C148.675 5 148.315 4.94667 147.835 4.84C147.355 4.70667 146.888 4.64 146.435 4.64C145.768 4.64 145.248 4.78667 144.875 5.08C144.528 5.37333 144.288 5.72 144.155 6.12C144.021 6.49333 143.955 6.82667 143.955 7.12V27.56C143.955 28.2533 143.728 28.84 143.275 29.32C142.821 29.7733 142.248 30 141.555 30C140.861 30 140.288 29.7733 139.835 29.32C139.381 28.84 139.155 28.2533 139.155 27.56V7.16C139.155 5.26667 139.821 3.66667 141.155 2.36C142.488 1.05333 144.488 0.4 147.155 0.4ZM147.595 9C148.235 9 148.768 9.21333 149.195 9.64C149.621 10.04 149.835 10.56 149.835 11.2C149.835 11.84 149.621 12.3733 149.195 12.8C148.768 13.2 148.235 13.4 147.595 13.4H136.995C136.355 13.4 135.821 13.2 135.395 12.8C134.968 12.3733 134.755 11.84 134.755 11.2C134.755 10.56 134.968 10.04 135.395 9.64C135.821 9.21333 136.355 9 136.995 9H147.595ZM159.696 6.04C159.696 6.92 159.442 7.81333 158.936 8.72C158.456 9.6 157.816 10.3467 157.016 10.96C156.242 11.5467 155.416 11.84 154.536 11.84C154.242 11.84 153.922 11.72 153.576 11.48C153.256 11.24 153.096 10.8267 153.096 10.24C153.096 9.62667 153.282 9.26667 153.656 9.16C154.056 9.02667 154.389 8.89333 154.656 8.76C155.002 8.57333 155.269 8.36 155.456 8.12C155.669 7.85333 155.776 7.53333 155.776 7.16C155.776 6.86667 155.629 6.61333 155.336 6.4C155.069 6.16 154.709 6.04 154.256 6.04C154.096 6.04 153.909 6.06667 153.696 6.12C153.482 6.14667 153.296 6.21333 153.136 6.32C152.869 6.18667 152.629 6.02667 152.416 5.84C152.229 5.62666 152.136 5.29333 152.136 4.84C152.136 4.01333 152.509 3.30667 153.256 2.72C154.029 2.10666 154.922 1.8 155.936 1.8C157.082 1.8 157.989 2.18666 158.656 2.96C159.349 3.73333 159.696 4.76 159.696 6.04ZM163.391 26.68C163.125 26.3067 163.005 25.8267 163.031 25.24C163.058 24.6533 163.405 24.1467 164.071 23.72C164.498 23.4533 164.951 23.3467 165.431 23.4C165.911 23.4267 166.378 23.6667 166.831 24.12C167.605 24.8933 168.418 25.4933 169.271 25.92C170.125 26.3467 171.191 26.56 172.471 26.56C172.871 26.5333 173.311 26.48 173.791 26.4C174.271 26.2933 174.685 26.08 175.031 25.76C175.405 25.4133 175.591 24.8933 175.591 24.2C175.591 23.6133 175.391 23.1467 174.991 22.8C174.591 22.4533 174.058 22.16 173.391 21.92C172.751 21.68 172.031 21.4533 171.231 21.24C170.405 21 169.551 20.7333 168.671 20.44C167.818 20.1467 167.031 19.7733 166.311 19.32C165.591 18.84 165.005 18.2133 164.551 17.44C164.098 16.6667 163.871 15.6933 163.871 14.52C163.871 13.1867 164.245 12.0533 164.991 11.12C165.738 10.1867 166.698 9.46667 167.871 8.96C169.071 8.45333 170.325 8.2 171.631 8.2C172.458 8.2 173.325 8.30667 174.231 8.52C175.138 8.70667 176.005 9.02667 176.831 9.48C177.658 9.90667 178.351 10.48 178.911 11.2C179.205 11.6 179.378 12.08 179.431 12.64C179.485 13.2 179.231 13.7067 178.671 14.16C178.271 14.48 177.805 14.6267 177.271 14.6C176.738 14.5467 176.298 14.36 175.951 14.04C175.498 13.4533 174.885 12.9867 174.111 12.64C173.365 12.2933 172.498 12.12 171.511 12.12C171.111 12.12 170.671 12.1733 170.191 12.28C169.738 12.36 169.338 12.56 168.991 12.88C168.645 13.1733 168.471 13.6533 168.471 14.32C168.471 14.9333 168.671 15.4267 169.071 15.8C169.471 16.1467 170.005 16.44 170.671 16.68C171.365 16.8933 172.098 17.1067 172.871 17.32C173.671 17.5333 174.485 17.7867 175.311 18.08C176.138 18.3733 176.898 18.76 177.591 19.24C178.285 19.72 178.845 20.3467 179.271 21.12C179.698 21.8667 179.911 22.8267 179.911 24C179.911 25.36 179.511 26.52 178.711 27.48C177.911 28.44 176.911 29.1733 175.711 29.68C174.511 30.16 173.285 30.4 172.031 30.4C170.458 30.4 168.885 30.1333 167.311 29.6C165.738 29.04 164.431 28.0667 163.391 26.68ZM198.099 2C198.739 2 199.299 2.24 199.779 2.72C200.286 3.17333 200.539 3.74667 200.539 4.44V27.56C200.539 28.2533 200.286 28.84 199.779 29.32C199.272 29.7733 198.686 30 198.019 30C197.272 30 196.672 29.7733 196.219 29.32C195.766 28.84 195.539 28.2533 195.539 27.56V4.44C195.539 3.74667 195.779 3.17333 196.259 2.72C196.739 2.24 197.352 2 198.099 2ZM215.819 2C216.566 2 217.166 2.24 217.619 2.72C218.072 3.17333 218.299 3.74667 218.299 4.44V27.56C218.299 28.2533 218.059 28.84 217.579 29.32C217.126 29.7733 216.512 30 215.739 30C215.099 30 214.526 29.7733 214.019 29.32C213.539 28.84 213.299 28.2533 213.299 27.56V4.44C213.299 3.74667 213.552 3.17333 214.059 2.72C214.566 2.24 215.152 2 215.819 2ZM197.979 13.64H215.819V18.24H197.979V13.64ZM250.209 31.12C250.769 31.12 251.289 31.3467 251.769 31.8C252.249 32.28 252.489 32.8267 252.489 33.44C252.489 34.0533 252.209 34.6267 251.649 35.16C251.116 35.72 250.422 36.2133 249.569 36.64C248.716 37.0667 247.822 37.4 246.889 37.64C245.982 37.88 245.156 38 244.409 38C242.756 38 241.436 37.84 240.449 37.52C239.462 37.2267 238.649 36.88 238.009 36.48C237.369 36.1067 236.769 35.76 236.209 35.44C235.649 35.1467 234.969 35 234.169 35C233.662 35 233.249 35.08 232.929 35.24C232.636 35.4267 232.302 35.6 231.929 35.76C231.582 35.9467 231.089 36.04 230.449 36.04C229.782 36.04 229.222 35.7867 228.769 35.28C228.316 34.7733 228.089 34.2267 228.089 33.64C228.089 32.6 228.556 31.9067 229.489 31.56L237.769 28.48L241.369 29.36L233.609 32.24L235.889 30.92C236.822 30.92 237.636 31.0533 238.329 31.32C239.049 31.6133 239.729 31.9333 240.369 32.28C241.009 32.6267 241.662 32.9333 242.329 33.2C243.022 33.4933 243.809 33.64 244.689 33.64C245.409 33.64 246.009 33.52 246.489 33.28C246.996 33.04 247.436 32.7733 247.809 32.48C248.262 32.1333 248.662 31.8133 249.009 31.52C249.382 31.2533 249.782 31.12 250.209 31.12ZM250.049 16C250.049 18 249.716 19.8667 249.049 21.6C248.382 23.3333 247.436 24.8667 246.209 26.2C245.009 27.5067 243.569 28.5333 241.889 29.28C240.236 30.0267 238.422 30.4 236.449 30.4C234.476 30.4 232.662 30.0267 231.009 29.28C229.356 28.5333 227.916 27.5067 226.689 26.2C225.489 24.8667 224.556 23.3333 223.889 21.6C223.222 19.8667 222.889 18 222.889 16C222.889 14 223.222 12.1333 223.889 10.4C224.556 8.66667 225.489 7.14667 226.689 5.84C227.916 4.50667 229.356 3.46666 231.009 2.72C232.662 1.97333 234.476 1.6 236.449 1.6C238.422 1.6 240.236 1.97333 241.889 2.72C243.569 3.46666 245.009 4.50667 246.209 5.84C247.436 7.14667 248.382 8.66667 249.049 10.4C249.716 12.1333 250.049 14 250.049 16ZM244.849 16C244.849 14.2133 244.489 12.6 243.769 11.16C243.049 9.69333 242.062 8.53333 240.809 7.68C239.556 6.82667 238.102 6.4 236.449 6.4C234.796 6.4 233.342 6.82667 232.089 7.68C230.836 8.53333 229.849 9.68 229.129 11.12C228.436 12.56 228.089 14.1867 228.089 16C228.089 17.7867 228.436 19.4133 229.129 20.88C229.849 22.32 230.836 23.4667 232.089 24.32C233.342 25.1733 234.796 25.6 236.449 25.6C238.102 25.6 239.556 25.1733 240.809 24.32C242.062 23.4667 243.049 22.32 243.769 20.88C244.489 19.4133 244.849 17.7867 244.849 16Z" fill="black"/>
</svg>
