<svg width="71" height="71" viewBox="0 0 71 71" fill="none" xmlns="http://www.w3.org/2000/svg">
<circle cx="35.5" cy="35.5" r="35.5" fill="#286E99" fill-opacity="0.2"/>
<path d="M55.889 23.2805C50.0685 18.9255 44.4925 19.0475 44.4925 19.0475L43.9225 19.6985C50.842 21.7745 54.0575 24.827 54.0575 24.827C44.158 19.3765 31.548 19.4155 21.251 24.827C21.251 24.827 24.5885 21.6115 31.915 19.5355L31.508 19.047C31.508 19.047 25.9725 18.925 20.1115 23.28C20.1115 23.28 14.2505 33.822 14.2505 46.806C14.2505 46.806 17.6695 52.667 26.665 52.952C26.665 52.952 28.171 51.161 29.392 49.6145C24.2225 48.068 22.269 44.8525 22.269 44.8525C25.5165 46.8845 28.8005 48.1565 32.8925 48.9635C39.5505 50.334 47.832 48.925 54.017 44.8525C54.017 44.8525 51.982 48.1495 46.65 49.6555C47.871 51.1615 49.3365 52.9115 49.3365 52.9115C58.331 52.627 61.75 46.766 61.75 46.8065C61.75 33.8225 55.889 23.2805 55.889 23.2805ZM30.409 43.0215C28.1295 43.0215 26.2575 41.027 26.2575 38.544C26.424 32.598 34.436 32.6165 34.561 38.544C34.5605 41.027 32.729 43.0215 30.409 43.0215ZM45.2655 43.0215C42.986 43.0215 41.114 41.027 41.114 38.544C41.297 32.6095 49.209 32.607 49.4175 38.544C49.417 41.027 47.5855 43.0215 45.2655 43.0215Z" fill="white"/>
</svg>
