<svg width="71" height="71" viewBox="0 0 71 71" fill="none" xmlns="http://www.w3.org/2000/svg">
<circle cx="35.5" cy="35.5" r="35.5" fill="#286E99" fill-opacity="0.2"/>
<path d="M49.2639 19.25H21.7364C21.427 19.2457 21.1197 19.3024 20.8322 19.4168C20.5447 19.5313 20.2825 19.7013 20.0607 19.9171C19.8389 20.1329 19.6617 20.3902 19.5394 20.6745C19.417 20.9587 19.3519 21.2643 19.3477 21.5737V49.4262C19.3519 49.7357 19.417 50.0412 19.5394 50.3255C19.6617 50.6097 19.8389 50.8671 20.0607 51.0829C20.2825 51.2987 20.5447 51.4687 20.8322 51.5831C21.1197 51.6976 21.427 51.7543 21.7364 51.75H49.2639C49.5733 51.7543 49.8806 51.6976 50.1681 51.5831C50.4556 51.4687 50.7178 51.2987 50.9396 51.0829C51.1614 50.8671 51.3386 50.6097 51.4609 50.3255C51.5833 50.0412 51.6484 49.7357 51.6527 49.4262V21.5737C51.6484 21.2643 51.5833 20.9587 51.4609 20.6745C51.3386 20.3902 51.1614 20.1329 50.9396 19.9171C50.7178 19.7013 50.4556 19.5313 50.1681 19.4168C49.8806 19.3024 49.5733 19.2457 49.2639 19.25ZM29.1464 46.4525H24.2714V31.8275H29.1464V46.4525ZM26.7089 29.78C26.0366 29.78 25.3918 29.5129 24.9164 29.0375C24.441 28.5621 24.1739 27.9173 24.1739 27.245C24.1739 26.5727 24.441 25.9279 24.9164 25.4525C25.3918 24.9771 26.0366 24.71 26.7089 24.71C27.0659 24.6695 27.4274 24.7049 27.7698 24.8138C28.1122 24.9227 28.4277 25.1027 28.6957 25.342C28.9637 25.5814 29.1781 25.8746 29.3249 26.2025C29.4718 26.5304 29.5476 26.8857 29.5476 27.245C29.5476 27.6043 29.4718 27.9595 29.3249 28.2874C29.1781 28.6154 28.9637 28.9086 28.6957 29.1479C28.4277 29.3872 28.1122 29.5672 27.7698 29.6762C27.4274 29.7851 27.0659 29.8205 26.7089 29.78ZM46.7289 46.4525H41.8539V38.6037C41.8539 36.6375 41.1552 35.3537 39.3839 35.3537C38.8357 35.3577 38.302 35.5297 37.8545 35.8464C37.4071 36.1631 37.0674 36.6093 36.8814 37.125C36.7542 37.5069 36.6991 37.9092 36.7189 38.3112V46.4362H31.8439C31.8439 46.4362 31.8439 33.1437 31.8439 31.8112H36.7189V33.875C37.1618 33.1065 37.8059 32.4735 38.5819 32.0439C39.3579 31.6144 40.2363 31.4047 41.1227 31.4375C44.3727 31.4375 46.7289 33.5337 46.7289 38.035V46.4525Z" fill="white"/>
</svg>
