<svg width="71" height="71" viewBox="0 0 71 71" fill="none" xmlns="http://www.w3.org/2000/svg">
<circle cx="35.5" cy="35.5" r="35.5" fill="#286E99" fill-opacity="0.2"/>
<path d="M56 23.5999C54.4967 24.2521 52.9069 24.6833 51.28 24.8799C52.9963 23.8546 54.2825 22.2415 54.9 20.3399C53.2871 21.3001 51.5215 21.9765 49.68 22.3399C48.4491 21.0051 46.8099 20.1165 45.0196 19.8136C43.2293 19.5107 41.3891 19.8106 39.7876 20.6663C38.1861 21.522 36.9139 22.885 36.1705 24.5416C35.4271 26.1982 35.2546 28.0547 35.68 29.8199C32.4189 29.655 29.2289 28.8058 26.3173 27.3277C23.4057 25.8495 20.8377 23.7753 18.78 21.2399C18.0583 22.5003 17.679 23.9276 17.68 25.3799C17.6774 26.7287 18.0084 28.0572 18.6435 29.2471C19.2786 30.437 20.198 31.4514 21.32 32.1999C20.016 32.1644 18.7398 31.8145 17.6 31.1799V31.2799C17.6098 33.1697 18.272 34.9981 19.4746 36.4559C20.6773 37.9136 22.3465 38.9112 24.2 39.2799C23.4865 39.4971 22.7457 39.6115 22 39.6199C21.4838 39.6139 20.9688 39.5671 20.46 39.4799C20.9878 41.1056 22.0092 42.5262 23.3821 43.5442C24.7551 44.5623 26.4112 45.127 28.12 45.1599C25.2344 47.4305 21.6718 48.6696 18 48.6799C17.3315 48.6821 16.6635 48.642 16 48.5599C19.7489 50.9804 24.1176 52.2654 28.58 52.2599C31.6594 52.2919 34.7143 51.71 37.5662 50.5481C40.4182 49.3862 43.01 47.6677 45.1904 45.4929C47.3708 43.3181 49.0959 40.7307 50.2651 37.8817C51.4343 35.0328 52.0241 31.9794 52 28.8999C52 28.5599 52 28.1999 52 27.8399C53.5694 26.6696 54.923 25.2348 56 23.5999Z" fill="white"/>
</svg>
